<mxfile host="Electron" agent="Mozilla/5.0 (X11; Linux x86_64) AppleWebKit/537.36 (KHTML, like Gecko) draw.io/26.1.1 Chrome/132.0.6834.210 Electron/34.3.3 Safari/537.36" version="26.1.1">
  <diagram name="Page-1" id="ldGblnP4FMNiV-Q7vonC">
    <mxGraphModel dx="1114" dy="753" grid="1" gridSize="10" guides="1" tooltips="1" connect="1" arrows="1" fold="1" page="1" pageScale="1" pageWidth="827" pageHeight="1169" math="0" shadow="0">
      <root>
        <mxCell id="0" />
        <mxCell id="1" parent="0" />
        <mxCell id="lDmU9zH5QgGnRtowHMSU-14" style="edgeStyle=orthogonalEdgeStyle;rounded=0;orthogonalLoop=1;jettySize=auto;html=1;exitX=0.5;exitY=1;exitDx=0;exitDy=0;entryX=0.5;entryY=0;entryDx=0;entryDy=0;" edge="1" parent="1" source="lDmU9zH5QgGnRtowHMSU-1" target="lDmU9zH5QgGnRtowHMSU-2">
          <mxGeometry relative="1" as="geometry" />
        </mxCell>
        <mxCell id="lDmU9zH5QgGnRtowHMSU-1" value="" style="ellipse;whiteSpace=wrap;html=1;aspect=fixed;" vertex="1" parent="1">
          <mxGeometry x="209.38" y="20" width="30" height="30" as="geometry" />
        </mxCell>
        <mxCell id="lDmU9zH5QgGnRtowHMSU-15" style="edgeStyle=orthogonalEdgeStyle;rounded=0;orthogonalLoop=1;jettySize=auto;html=1;exitX=0.5;exitY=1;exitDx=0;exitDy=0;entryX=0.5;entryY=0;entryDx=0;entryDy=0;" edge="1" parent="1" source="lDmU9zH5QgGnRtowHMSU-2" target="lDmU9zH5QgGnRtowHMSU-3">
          <mxGeometry relative="1" as="geometry" />
        </mxCell>
        <mxCell id="lDmU9zH5QgGnRtowHMSU-2" value="Получить EFI_FILE_INFO из дескриптора каталога" style="rounded=0;whiteSpace=wrap;html=1;" vertex="1" parent="1">
          <mxGeometry x="134.38" y="80" width="180" height="50" as="geometry" />
        </mxCell>
        <mxCell id="lDmU9zH5QgGnRtowHMSU-16" value="Нет" style="edgeStyle=orthogonalEdgeStyle;rounded=0;orthogonalLoop=1;jettySize=auto;html=1;exitX=0.5;exitY=1;exitDx=0;exitDy=0;entryX=0.5;entryY=0;entryDx=0;entryDy=0;" edge="1" parent="1" source="lDmU9zH5QgGnRtowHMSU-3" target="lDmU9zH5QgGnRtowHMSU-13">
          <mxGeometry relative="1" as="geometry" />
        </mxCell>
        <mxCell id="lDmU9zH5QgGnRtowHMSU-17" value="Да" style="edgeStyle=orthogonalEdgeStyle;rounded=0;orthogonalLoop=1;jettySize=auto;html=1;exitX=1;exitY=0.5;exitDx=0;exitDy=0;entryX=0;entryY=0.5;entryDx=0;entryDy=0;" edge="1" parent="1" source="lDmU9zH5QgGnRtowHMSU-3" target="lDmU9zH5QgGnRtowHMSU-4">
          <mxGeometry relative="1" as="geometry" />
        </mxCell>
        <mxCell id="lDmU9zH5QgGnRtowHMSU-3" value="Есть ли еще элементы в каталоге?" style="rhombus;whiteSpace=wrap;html=1;spacingLeft=23;spacingRight=20;" vertex="1" parent="1">
          <mxGeometry x="133.76" y="163.75" width="181.25" height="90" as="geometry" />
        </mxCell>
        <mxCell id="lDmU9zH5QgGnRtowHMSU-18" value="Да" style="edgeStyle=orthogonalEdgeStyle;rounded=0;orthogonalLoop=1;jettySize=auto;html=1;exitX=0.5;exitY=1;exitDx=0;exitDy=0;entryX=0.5;entryY=0;entryDx=0;entryDy=0;" edge="1" parent="1" source="lDmU9zH5QgGnRtowHMSU-4" target="lDmU9zH5QgGnRtowHMSU-6">
          <mxGeometry relative="1" as="geometry" />
        </mxCell>
        <mxCell id="lDmU9zH5QgGnRtowHMSU-24" value="Нет" style="edgeStyle=orthogonalEdgeStyle;rounded=0;orthogonalLoop=1;jettySize=auto;html=1;exitX=1;exitY=0.5;exitDx=0;exitDy=0;entryX=0.5;entryY=0;entryDx=0;entryDy=0;" edge="1" parent="1" source="lDmU9zH5QgGnRtowHMSU-4" target="lDmU9zH5QgGnRtowHMSU-5">
          <mxGeometry x="-0.5931" relative="1" as="geometry">
            <mxPoint as="offset" />
          </mxGeometry>
        </mxCell>
        <mxCell id="lDmU9zH5QgGnRtowHMSU-4" value="Это каталог?" style="rhombus;whiteSpace=wrap;html=1;spacingLeft=23;spacingRight=20;" vertex="1" parent="1">
          <mxGeometry x="380" y="60" width="181.25" height="90" as="geometry" />
        </mxCell>
        <mxCell id="lDmU9zH5QgGnRtowHMSU-25" style="edgeStyle=orthogonalEdgeStyle;rounded=0;orthogonalLoop=1;jettySize=auto;html=1;exitX=0.5;exitY=1;exitDx=0;exitDy=0;entryX=1;entryY=0.5;entryDx=0;entryDy=0;" edge="1" parent="1" source="lDmU9zH5QgGnRtowHMSU-5" target="lDmU9zH5QgGnRtowHMSU-12">
          <mxGeometry relative="1" as="geometry" />
        </mxCell>
        <mxCell id="lDmU9zH5QgGnRtowHMSU-5" value="&lt;div&gt;&lt;span style=&quot;background-color: transparent; color: light-dark(rgb(0, 0, 0), rgb(255, 255, 255));&quot;&gt;Вызвать для файла&amp;nbsp;&lt;br&gt;FsFuzzSubtest1()&lt;/span&gt;&lt;/div&gt;" style="shape=process;whiteSpace=wrap;html=1;backgroundOutline=1;" vertex="1" parent="1">
          <mxGeometry x="610" y="260" width="170" height="50" as="geometry" />
        </mxCell>
        <mxCell id="lDmU9zH5QgGnRtowHMSU-19" style="edgeStyle=orthogonalEdgeStyle;rounded=0;orthogonalLoop=1;jettySize=auto;html=1;exitX=0.5;exitY=1;exitDx=0;exitDy=0;" edge="1" parent="1" source="lDmU9zH5QgGnRtowHMSU-6" target="lDmU9zH5QgGnRtowHMSU-7">
          <mxGeometry relative="1" as="geometry" />
        </mxCell>
        <mxCell id="lDmU9zH5QgGnRtowHMSU-6" value="Открыть каталог на чтение" style="rounded=0;whiteSpace=wrap;html=1;" vertex="1" parent="1">
          <mxGeometry x="386.25" y="190.63" width="168.75" height="29.37" as="geometry" />
        </mxCell>
        <mxCell id="lDmU9zH5QgGnRtowHMSU-20" style="edgeStyle=orthogonalEdgeStyle;rounded=0;orthogonalLoop=1;jettySize=auto;html=1;exitX=0.5;exitY=1;exitDx=0;exitDy=0;entryX=0.5;entryY=0;entryDx=0;entryDy=0;" edge="1" parent="1" source="lDmU9zH5QgGnRtowHMSU-7" target="lDmU9zH5QgGnRtowHMSU-11">
          <mxGeometry relative="1" as="geometry" />
        </mxCell>
        <mxCell id="lDmU9zH5QgGnRtowHMSU-7" value="Обойти каталог&lt;br&gt;FsTest1()" style="shape=process;whiteSpace=wrap;html=1;backgroundOutline=1;" vertex="1" parent="1">
          <mxGeometry x="387.5" y="260" width="167.5" height="50" as="geometry" />
        </mxCell>
        <mxCell id="lDmU9zH5QgGnRtowHMSU-21" style="edgeStyle=orthogonalEdgeStyle;rounded=0;orthogonalLoop=1;jettySize=auto;html=1;exitX=0.5;exitY=1;exitDx=0;exitDy=0;entryX=0.5;entryY=0;entryDx=0;entryDy=0;" edge="1" parent="1" source="lDmU9zH5QgGnRtowHMSU-11" target="lDmU9zH5QgGnRtowHMSU-12">
          <mxGeometry relative="1" as="geometry" />
        </mxCell>
        <mxCell id="lDmU9zH5QgGnRtowHMSU-11" value="Закрыть каталог" style="rounded=0;whiteSpace=wrap;html=1;" vertex="1" parent="1">
          <mxGeometry x="386.25" y="340" width="168.75" height="30" as="geometry" />
        </mxCell>
        <mxCell id="lDmU9zH5QgGnRtowHMSU-22" style="edgeStyle=orthogonalEdgeStyle;rounded=0;orthogonalLoop=1;jettySize=auto;html=1;exitX=0;exitY=0.5;exitDx=0;exitDy=0;entryX=0;entryY=0.5;entryDx=0;entryDy=0;" edge="1" parent="1" source="lDmU9zH5QgGnRtowHMSU-12" target="lDmU9zH5QgGnRtowHMSU-2">
          <mxGeometry relative="1" as="geometry" />
        </mxCell>
        <mxCell id="lDmU9zH5QgGnRtowHMSU-12" value="Удалить EFI_FILE_INFO" style="rounded=0;whiteSpace=wrap;html=1;" vertex="1" parent="1">
          <mxGeometry x="386.25" y="410" width="168.75" height="29.37" as="geometry" />
        </mxCell>
        <mxCell id="lDmU9zH5QgGnRtowHMSU-13" value="" style="ellipse;whiteSpace=wrap;html=1;aspect=fixed;" vertex="1" parent="1">
          <mxGeometry x="209.38" y="340" width="30" height="30" as="geometry" />
        </mxCell>
      </root>
    </mxGraphModel>
  </diagram>
</mxfile>
